PathFileType	4	(x/y/z)	S01_PSF_T11.trc
DataRate	CameraRate	NumFrames	NumMarkers	Units	OrigDataRate	OrigDataStartFrame	OrigNumFrames
240	240	10	51	mm	240	164	436
Frame#	Time	Sternum			R.Acromium			L.Acromium			Top.Head			R.ASIS			L.ASIS			R.PSIS			L.PSIS			R.Great.Tro			L.Great.Tro			R.Iliac.Crest			L.Iliac.Crest			V.Sacral			R.Thigh.Upper.Post			R.Thigh.Lower.Ant			R.Thigh.Lower.Post			R.Thigh.Upper.Ant			R.Knee.Lat			R.Knee.Med			R.Shank.Upper.Post			R.Shank.Lower.Ant			R.Shank.Lower.Post			R.Shank.Upper.Ant			R.Ankle.Lat			R.Ankle.Med			R.Heel.Upper			R.Heel.Med			R.Heel.Lat			R.Toe.Lat			R.Toe.Med			R.Toe.Tip			L.Thigh.Upper.Post			L.Thigh.Lower.Ant			L.Thigh.Lower.Post			L.Thigh.Upper.Ant			L.Knee.Lat			L.Knee.Med			L.Shank.Upper.Post			L.Shank.Lower.Ant			L.Shank.Lower.Post			L.Shank.Upper.Ant			L.Ankle.Lat			L.Ankle.Med			L.Heel.Upper			L.Heel.Med			L.Heel.Lat			L.Toe.Lat			L.Toe.Med			L.Toe.Tip			Cervical.Spine			Back			
		X1	Y1	Z1	X2	Y2	Z2	X3	Y3	Z3	X4	Y4	Z4	X5	Y5	Z5	X6	Y6	Z6	X7	Y7	Z7	X8	Y8	Z8	X9	Y9	Z9	X10	Y10	Z10	X11	Y11	Z11	X12	Y12	Z12	X13	Y13	Z13	X14	Y14	Z14	X15	Y15	Z15	X16	Y16	Z16	X17	Y17	Z17	X18	Y18	Z18	X19	Y19	Z19	X20	Y20	Z20	X21	Y21	Z21	X22	Y22	Z22	X23	Y23	Z23	X24	Y24	Z24	X25	Y25	Z25	X26	Y26	Z26	X27	Y27	Z27	X28	Y28	Z28	X29	Y29	Z29	X30	Y30	Z30	X31	Y31	Z31	X32	Y32	Z32	X33	Y33	Z33	X34	Y34	Z34	X35	Y35	Z35	X36	Y36	Z36	X37	Y37	Z37	X38	Y38	Z38	X39	Y39	Z39	X40	Y40	Z40	X41	Y41	Z41	X42	Y42	Z42	X43	Y43	Z43	X44	Y44	Z44	X45	Y45	Z45	X46	Y46	Z46	X47	Y47	Z47	X48	Y48	Z48	X49	Y49	Z49	X50	Y50	Z50	X51	Y51	Z51	

164	0.67917	-437.86	1257.2	315.72	-528.66	1493.4	522.3	-563.4	1545.4	198.1	-451.84	1821.1	390.61	-480.86	1017.4	459.71	-501.18	1010.4	192.82	-727.45	1053.2	385.46	-738.08	1048.5	283.44	-549.3	966.92	544.87	-614.28	955.22	124.56	-566.33	1105.7	536.76	-614.75	1098.1	131.37	-746.26	1014.7	334.66	-481.69	663.6	510.7	-395.98	616.45	475.88	-455.56	581.41	483.94	-419.12	700.66	502.98	-418.78	527.38	474.83	-422.51	536.72	332.29	-475.5	368.5	491.05	-419.37	285.98	443	-482.23	298.86	477.99	-415.74	356.8	463.43	-494.81	101.34	433.8	-463.49	109.99	340.6	-566.78	72.758	373.33	-549.26	44.207	344.49	-554.81	42.698	409.01	-363.8	36.281	468.31	-331.54	41.146	343.34	-268.93	59.569	398.81	-623.61	672.98	136.11	-539.22	609.3	102.59	-602.92	584.02	143.09	-564.75	700.98	101.88	-560.53	511.65	106.12	-496.51	492.45	244.7	-686.43	465.82	109.02	-720.67	361.13	124.75	-747.26	416.31	119.57	-656.38	408.06	112.71	-914.81	295.68	167.64	-876.09	265.37	255	-966.19	335.02	232.91	-976.2	311.41	268.35	-991.64	318.31	206.72	-915.37	137.65	130.09	-872.75	104.41	241.73	-842.29	62.472	177.06	-623.22	1583.6	376.62	-736.08	1276.8	364.27
165	0.68333	-432.62	1258.4	315.67	-522.68	1494.6	522.61	-558.38	1546.8	198.58	-446.15	1822.3	391.34	-475.42	1018.3	459.95	-496.11	1012	192.92	-722.12	1054.6	386.32	-732.95	1049.9	284.31	-544.01	967.82	545.2	-609.3	956.72	125.12	-560.56	1106.9	537.18	-610.35	1099.4	131.89	-741.11	1016.2	335.57	-478.73	664.04	510.96	-393.42	616.2	476.09	-453.28	581.66	484.22	-415.88	700.6	503.19	-417.02	527.28	475.07	-420.81	536.59	332.55	-474.5	368.6	491.26	-418.65	285.9	443.19	-481.47	298.99	478.17	-414.78	356.7	463.65	-494.71	101.41	433.85	-463.37	110.12	340.68	-566.73	72.885	373.39	-549.24	44.335	344.53	-554.77	42.784	409.04	-363.77	36.243	468.33	-331.51	41.177	343.36	-268.88	59.451	398.87	-614.37	674.06	136.35	-529.59	611.33	102.65	-592.8	585.39	143.4	-556.04	702.68	101.95	-549.79	513.73	106.22	-485.64	494.96	245	-675.3	467.6	109.39	-709.06	362.74	124.95	-735.92	417.82	119.9	-645.02	409.96	112.92	-903	296.54	167.98	-863.99	266.46	255.27	-954.79	335.18	233.3	-964.52	311.32	268.54	-980.06	318.34	207.08	-901.98	138.73	130.04	-859.01	105.61	241.56	-828.22	64.146	176.79	-617.62	1584.9	377.33	-730.67	1278.2	365.3
166	0.6875	-427.42	1259.7	315.62	-516.73	1495.9	522.9	-553.38	1548.2	199.04	-440.46	1823.5	392	-470.02	1019.2	460.19	-491.02	1013.6	193.03	-716.81	1056.1	387.14	-727.81	1051.4	285.14	-538.78	968.72	545.53	-604.29	958.27	125.66	-554.82	1108.1	537.57	-605.91	1100.8	132.43	-735.97	1017.6	336.42	-475.84	664.49	511.24	-390.93	615.94	476.32	-451.08	581.91	484.51	-412.71	700.54	503.42	-415.35	527.18	475.34	-419.15	536.46	332.83	-473.56	368.72	491.48	-417.97	285.84	443.4	-480.76	299.12	478.36	-413.87	356.62	463.88	-494.61	101.49	433.9	-463.25	110.25	340.77	-566.67	73.02	373.44	-549.21	44.47	344.56	-554.74	42.877	409.07	-363.73	36.2	468.37	-331.49	41.21	343.38	-268.83	59.334	398.92	-605.19	675.21	136.57	-520	613.44	102.75	-582.73	586.82	143.67	-547.39	704.45	102.04	-539.12	515.86	106.37	-474.84	497.58	245.32	-664.22	469.3	109.77	-697.29	364.22	125.18	-724.59	419.2	120.21	-633.66	411.8	113.14	-891.08	297.06	168.27	-851.8	267.33	255.53	-943.35	334.99	233.56	-952.81	310.89	268.62	-968.42	317.96	207.32	-888.27	139.46	130.07	-845	106.64	241.54	-813.78	65.654	176.73	-612.03	1586.2	378.01	-725.29	1279.7	366.32
167	0.69167	-422.24	1261	315.57	-510.81	1497.1	523.18	-548.4	1549.6	199.48	-434.77	1824.7	392.6	-464.66	1020.2	460.43	-485.89	1015.2	193.15	-711.52	1057.5	387.92	-722.67	1052.8	285.93	-533.59	969.62	545.85	-599.25	959.85	126.19	-549.09	1109.3	537.94	-601.41	1102.2	132.99	-730.83	1019.1	337.22	-473.02	664.94	511.52	-388.51	615.69	476.57	-448.96	582.17	484.81	-409.6	700.47	503.66	-413.76	527.11	475.61	-417.52	536.36	333.12	-472.68	368.84	491.7	-417.34	285.8	443.63	-480.1	299.27	478.55	-413.02	356.55	464.13	-494.51	101.57	433.96	-463.12	110.39	340.86	-566.6	73.161	373.49	-549.17	44.612	344.59	-554.7	42.975	409.1	-363.7	36.153	468.4	-331.46	41.245	343.41	-268.77	59.218	398.99	-596.06	676.42	136.75	-510.47	615.6	102.89	-572.72	588.33	143.89	-538.78	706.28	102.13	-528.52	518.03	106.55	-464.13	500.29	245.65	-653.17	470.92	110.14	-685.39	365.55	125.45	-713.25	420.44	120.51	-622.29	413.58	113.38	-879.05	297.25	168.5	-839.52	267.98	255.77	-931.87	334.45	233.7	-941.05	310.13	268.57	-956.69	317.19	207.43	-874.26	139.85	130.19	-830.72	107.48	241.64	-798.98	66.988	176.85	-606.46	1587.5	378.67	-719.91	1281.1	367.34
168	0.69583	-417.08	1262.3	315.53	-504.92	1498.4	523.43	-543.44	1551	199.9	-429.07	1825.9	393.13	-459.33	1021.1	460.67	-480.74	1016.9	193.28	-706.26	1058.9	388.66	-717.52	1054.3	286.68	-528.45	970.52	546.17	-594.17	961.45	126.69	-543.4	1110.6	538.29	-596.84	1103.7	133.56	-725.69	1020.6	337.96	-470.26	665.39	511.81	-386.17	615.43	476.84	-446.91	582.44	485.12	-406.57	700.39	503.92	-412.24	527.05	475.91	-415.93	536.27	333.41	-471.86	368.97	491.93	-416.75	285.77	443.87	-479.49	299.42	478.73	-412.22	356.5	464.39	-494.42	101.66	434.02	-462.99	110.53	340.96	-566.54	73.308	373.54	-549.14	44.759	344.62	-554.66	43.08	409.12	-363.66	36.102	468.44	-331.43	41.282	343.45	-268.72	59.106	399.05	-587	677.69	136.9	-501	617.82	103.06	-562.78	589.9	144.07	-530.23	708.17	102.23	-517.99	520.23	106.78	-453.5	503.08	246.01	-642.18	472.44	110.51	-673.35	366.76	125.74	-701.91	421.53	120.78	-610.92	415.3	113.64	-866.92	297.11	168.68	-827.15	268.41	256	-920.35	333.57	233.73	-929.25	309.05	268.42	-944.89	316.05	207.44	-859.97	139.93	130.38	-816.19	108.15	241.88	-783.85	68.149	177.13	-600.91	1588.8	379.3	-714.55	1282.5	368.34
169	0.7	-411.94	1263.6	315.5	-499.05	1499.8	523.67	-538.5	1552.4	200.32	-423.38	1827.1	393.6	-454.05	1022.1	460.91	-475.55	1018.6	193.44	-701.01	1060.3	389.36	-712.35	1055.8	287.38	-523.36	971.43	546.48	-589.05	963.08	127.17	-537.73	1111.9	538.61	-592.21	1105.2	134.15	-720.54	1022.1	338.63	-467.57	665.84	512.12	-383.9	615.17	477.13	-444.94	582.71	485.44	-403.61	700.31	504.2	-410.79	527	476.21	-414.37	536.19	333.72	-471.1	369.11	492.15	-416.2	285.76	444.13	-478.94	299.59	478.92	-411.48	356.46	464.67	-494.33	101.74	434.09	-462.86	110.67	341.07	-566.47	73.46	373.58	-549.1	44.912	344.65	-554.62	43.189	409.15	-363.63	36.049	468.49	-331.41	41.322	343.49	-268.67	58.997	399.12	-578.02	679.02	137	-491.58	620.1	103.26	-552.93	591.51	144.2	-521.73	710.1	102.33	-507.53	522.44	107.05	-442.96	505.94	246.39	-631.22	473.85	110.86	-661.21	367.82	126.07	-690.56	422.47	121.03	-599.55	416.94	113.91	-854.68	296.66	168.8	-814.69	268.62	256.23	-908.78	332.35	233.65	-917.39	307.64	268.17	-933.01	314.53	207.35	-845.41	139.69	130.63	-801.43	108.63	242.22	-768.41	69.138	177.57	-595.37	1590.1	379.92	-709.19	1284	369.34
170	0.70417	-406.83	1264.8	315.47	-493.21	1501.1	523.9	-533.59	1553.7	200.72	-417.7	1828.3	394	-448.8	1023.1	461.15	-470.34	1020.3	193.62	-695.78	1061.7	390.01	-707.18	1057.3	288.03	-518.3	972.34	546.79	-583.88	964.72	127.62	-532.1	1113.1	538.93	-587.51	1106.8	134.75	-715.38	1023.5	339.25	-464.94	666.29	512.42	-381.69	614.9	477.44	-443.04	582.98	485.75	-400.7	700.22	504.49	-409.42	526.96	476.53	-412.84	536.12	334.03	-470.4	369.25	492.38	-415.7	285.76	444.4	-478.43	299.76	479.11	-410.79	356.44	464.96	-494.24	101.83	434.15	-462.73	110.81	341.19	-566.4	73.617	373.62	-549.05	45.069	344.68	-554.59	43.305	409.17	-363.6	35.995	468.54	-331.38	41.363	343.54	-268.61	58.892	399.19	-569.12	680.39	137.07	-482.22	622.41	103.49	-543.16	593.18	144.28	-513.28	712.08	102.44	-497.14	524.66	107.35	-432.52	508.86	246.79	-620.32	475.15	111.19	-648.99	368.77	126.42	-679.21	423.25	121.26	-588.18	418.51	114.21	-842.35	295.9	168.89	-802.14	268.61	256.44	-897.15	330.81	233.5	-905.46	305.92	267.85	-921.05	312.66	207.18	-830.6	139.17	130.94	-786.44	108.94	242.65	-752.67	69.959	178.13	-589.86	1591.4	380.51	-703.84	1285.4	370.32
171	0.70833	-401.73	1266.1	315.45	-487.39	1502.4	524.11	-528.69	1555.1	201.11	-412.03	1829.5	394.34	-443.58	1024.1	461.4	-465.12	1022	193.83	-690.57	1063.1	390.62	-702	1058.8	288.63	-513.28	973.25	547.1	-578.67	966.36	128.04	-526.51	1114.4	539.23	-582.73	1108.4	135.36	-710.22	1025	339.81	-462.38	666.74	512.73	-379.56	614.63	477.77	-441.21	583.26	486.07	-397.86	700.12	504.79	-408.11	526.93	476.85	-411.33	536.07	334.34	-469.76	369.41	492.61	-415.24	285.77	444.68	-477.97	299.94	479.29	-410.15	356.43	465.26	-494.16	101.92	434.22	-462.59	110.96	341.31	-566.32	73.779	373.66	-549.01	45.23	344.7	-554.55	43.425	409.19	-363.57	35.94	468.6	-331.36	41.405	343.59	-268.56	58.791	399.27	-560.31	681.8	137.1	-472.92	624.75	103.75	-533.5	594.88	144.32	-504.88	714.09	102.56	-486.83	526.88	107.7	-422.19	511.82	247.22	-609.47	476.33	111.51	-636.72	369.59	126.79	-667.86	423.89	121.47	-576.83	419.99	114.52	-829.9	294.85	168.94	-789.51	268.38	256.65	-885.46	328.94	233.27	-893.47	303.9	267.47	-908.99	310.44	206.94	-815.55	138.39	131.29	-771.24	109.08	243.15	-736.67	70.621	178.8	-584.35	1592.7	381.08	-698.49	1286.8	371.29
172	0.7125	-396.65	1267.4	315.45	-481.6	1503.8	524.32	-523.82	1556.5	201.49	-406.37	1830.6	394.61	-438.41	1025.1	461.66	-459.88	1023.7	194.08	-685.38	1064.4	391.18	-696.8	1060.3	289.18	-508.31	974.16	547.4	-573.41	968.01	128.43	-520.96	1115.7	539.52	-577.89	1110.1	135.99	-705.06	1026.4	340.31	-459.87	667.19	513.05	-377.49	614.36	478.12	-439.45	583.54	486.39	-395.08	700.01	505.11	-406.87	526.92	477.18	-409.86	536.03	334.65	-469.16	369.57	492.83	-414.81	285.79	444.97	-477.56	300.13	479.47	-409.56	356.44	465.56	-494.09	102.02	434.29	-462.46	111.11	341.43	-566.25	73.944	373.69	-548.96	45.394	344.71	-554.51	43.552	409.21	-363.54	35.885	468.66	-331.33	41.45	343.65	-268.52	58.694	399.34	-551.59	683.24	137.08	-463.66	627.13	104.05	-523.94	596.62	144.3	-496.54	716.12	102.67	-476.59	529.09	108.07	-411.97	514.81	247.67	-598.67	477.4	111.82	-624.4	370.29	127.19	-656.5	424.36	121.65	-565.48	421.4	114.85	-817.36	293.52	168.97	-776.78	267.92	256.86	-873.7	326.76	232.99	-881.39	301.57	267.06	-896.84	307.88	206.64	-800.28	137.35	131.67	-755.82	109.04	243.72	-720.41	71.132	179.54	-578.87	1594	381.64	-693.15	1288.2	372.24
173	0.71667	-391.58	1268.7	315.45	-475.83	1505.1	524.51	-518.97	1557.8	201.86	-400.72	1831.8	394.82	-433.27	1026.1	461.93	-454.63	1025.4	194.36	-680.21	1065.7	391.69	-691.6	1061.8	289.68	-503.36	975.07	547.69	-568.11	969.66	128.78	-515.45	1117	539.8	-572.97	1111.8	136.61	-699.89	1027.8	340.75	-457.42	667.63	513.36	-375.48	614.08	478.47	-437.75	583.82	486.71	-392.36	699.9	505.42	-405.69	526.91	477.51	-408.41	536.01	334.97	-468.61	369.74	493.06	-414.42	285.83	445.26	-477.18	300.33	479.65	-409.01	356.45	465.87	-494.01	102.12	434.36	-462.32	111.25	341.56	-566.17	74.113	373.72	-548.91	45.561	344.73	-554.47	43.684	409.22	-363.52	35.83	468.73	-331.31	41.495	343.71	-268.47	58.602	399.42	-542.96	684.7	137.03	-454.46	629.52	104.38	-514.48	598.38	144.25	-488.25	718.17	102.79	-466.43	531.3	108.49	-401.87	517.84	248.16	-587.93	478.35	112.11	-612.07	370.88	127.6	-645.15	424.68	121.82	-554.15	422.71	115.21	-804.72	291.91	168.97	-763.95	267.24	257.06	-861.85	324.27	232.67	-869.22	298.95	266.61	-884.58	305	206.31	-784.78	136.09	132.07	-740.21	108.84	244.32	-703.92	71.502	180.33	-573.39	1595.2	382.18	-687.81	1289.5	373.17
